Coordinates
version=1
nRows=14
nColumns=36
inDegrees=yes

Units are S.I. units (second, meters, Newtons, ...)
If the header above contains a line with 'inDegrees', this indicates whether rotational values are in degrees (yes) or radians (no).

endheader
time	pelvis_tilt	pelvis_list	pelvis_rotation	pelvis_tx	pelvis_ty	pelvis_tz	hip_flexion_r	hip_adduction_r	hip_rotation_r	knee_angle_r	knee_angle_r_beta	ankle_angle_r	subtalar_angle_r	mtp_angle_r	hip_flexion_l	hip_adduction_l	hip_rotation_l	knee_angle_l	knee_angle_l_beta	ankle_angle_l	subtalar_angle_l	mtp_angle_l	lumbar_extension	lumbar_bending	lumbar_rotation	arm_flex_r	arm_add_r	arm_rot_r	elbow_flex_r	pro_sup_r	arm_flex_l	arm_add_l	arm_rot_l	elbow_flex_l	pro_sup_l
      6.70000000	    -25.62254874	     -6.64579937	     -0.64967111	     -0.31662060	      0.65117944	     -0.47717825	     88.10047414	      2.12807056	     -6.30201991	     91.91315528	      1.60418719	     28.70261268	    -16.51035893	     -7.49999987	     92.27669541	    -19.20016161	     18.04275699	     87.34900664	      1.52452776	     27.16028088	      6.60394659	     -7.49999987	    -35.24761451	      4.82364439	      3.77057140	     73.56126793	    -24.42641182	     14.44032837	    125.96361294	     97.60302521	     65.22960222	    -23.78480303	      9.79013351	    131.72797681	     88.82662271
      6.71000000	    -25.58918024	     -6.58208152	     -0.60941035	     -0.31625719	      0.65037444	     -0.47710962	     88.16947462	      2.08755913	     -6.23278049	     92.13069169	      1.60798391	     28.77459838	    -16.53747237	     -7.49999987	     92.29113879	    -19.13372966	     18.03579178	     87.50873003	      1.52731546	     27.15283209	      6.43756418	     -7.49999987	    -35.28884082	      4.83121414	      3.72700867	     73.40723689	    -24.38804978	     14.36861365	    126.02642698	     97.20646138	     65.12470776	    -23.82487750	      9.71063979	    131.70947425	     88.50294896
      6.72000000	    -25.57929510	     -6.60029149	     -0.57258934	     -0.31587249	      0.64961455	     -0.47707117	     88.23708753	      2.07067368	     -6.22513508	     92.31820395	      1.61125662	     28.83122842	    -16.53205075	     -7.49999987	     92.37615510	    -19.09266812	     18.10215094	     87.67603758	      1.53023553	     27.27542718	      6.46155976	     -7.49999987	    -35.28628919	      4.94102488	      3.75342367	     73.22268302	    -24.35331071	     14.37163681	    126.06576575	     96.98731714	     64.95282478	    -23.87052220	      9.59758588	    131.65681453	     88.27642954
      6.73000000	    -25.58472295	     -6.66056167	     -0.60082073	     -0.31549195	      0.64886801	     -0.47702561	     88.29932812	      2.07279006	     -6.32751735	     92.47734308	      1.61403412	     28.96909204	    -16.35383776	     -7.49999987	     92.50877207	    -19.13005790	     18.24376211	     87.86914419	      1.53360588	     27.52879326	      6.88440575	     -7.49999987	    -35.24323210	      5.05295794	      3.80449270	     73.10338558	    -24.27666145	     14.19648930	    125.70493145	    101.04176260	     64.70744128	    -23.86956050	      9.30008089	    131.28771630	     91.10612416
      6.74000000	    -25.61766032	     -6.70497723	     -0.66402614	     -0.31508485	      0.64823289	     -0.47688009	     88.38186062	      2.11940637	     -6.39119686	     92.60552582	      1.61627133	     29.00207851	    -16.32072196	     -7.49999987	     92.66916615	    -19.23324888	     18.30769433	     88.03878448	      1.53656666	     27.48982945	      6.89181573	     -7.49999987	    -35.16176124	      5.12063813	      3.91603319	     72.83678198	    -24.27454386	     14.09495223	    125.74969110	    100.58492588	     64.49466734	    -23.89058118	      9.17154246	    131.29628479	     90.73947798
      6.75000000	    -25.55170245	     -6.56295223	     -0.67899076	     -0.31459410	      0.64805735	     -0.47671291	     88.34904800	      2.09212533	     -6.29233385	     92.72709085	      1.61839304	     29.10359764	    -16.37787560	     -7.49999987	     92.55229112	    -19.27654916	     18.14839360	     88.11752456	      1.53794093	     27.38732833	      6.64607669	     -7.49999987	    -35.21877621	      4.99495080	      3.84792527	     72.56835324	    -24.25655410	     13.96292233	    125.89146363	     99.98320822	     64.33815428	    -24.02801207	      9.11918804	    131.36919959	     90.22307914
      6.76000000	    -25.50791251	     -6.40209595	     -0.66301060	     -0.31413531	      0.64796290	     -0.47672461	     88.32539144	      2.02721731	     -6.15991277	     92.83132830	      1.62021233	     29.17971288	    -16.43256448	     -7.49999987	     92.41945721	    -19.23927865	     17.99189685	     88.17058883	      1.53886708	     27.29090873	      6.42149448	     -7.49999987	    -35.21845157	      4.88956677	      3.74428092	     72.24316579	    -24.23206327	     13.78686602	    125.97418324	     99.38402971	     64.16123577	    -24.12200179	      9.04276416	    131.45159599	     89.65382956
      6.77000000	    -25.45262620	     -6.29324569	     -0.66655412	     -0.31363239	      0.64795189	     -0.47682428	     88.26848675	      1.96633775	     -6.06555360	     92.90910946	      1.62156987	     29.24284842	    -16.33808160	     -7.49999987	     92.28124482	    -19.22677083	     17.88269544	     88.21687032	      1.53967484	     27.26815342	      6.24055750	     -7.49999987	    -35.25385306	      4.85621174	      3.71222223	     71.98275320	    -24.28487403	     13.71975100	    126.17333874	     98.64017967	     63.93956700	    -24.28245143	      9.01916643	    131.52796449	     88.99155351
      6.78000000	    -25.43203366	     -6.31905105	     -0.69085685	     -0.31315977	      0.64784971	     -0.47688741	     88.22383463	      1.94918383	     -6.11029394	     92.95376714	      1.62234929	     29.24885370	    -16.09714702	     -7.49999987	     92.27118593	    -19.27155752	     17.94036727	     88.29904728	      1.54110910	     27.58916905	      6.68844767	     -7.49999987	    -35.21582363	      4.95290083	      3.78470778	     71.78648400	    -24.39063617	     13.85183833	    126.26163698	     98.67299578	     63.72134811	    -24.25911283	      8.89108254	    131.55555181	     88.75514405
      6.79000000	    -25.40521787	     -6.30910154	     -0.72373417	     -0.31269337	      0.64785763	     -0.47692265	     88.16485337	      1.94765624	     -6.11364327	     92.99193946	      1.62301552	     29.50169276	    -15.85163646	     -7.49999987	     92.21289125	    -19.30999586	     17.96520075	     88.35289618	      1.54204894	     27.83776001	      7.11230204	     -7.49999987	    -35.16661456	      4.99711222	      3.83797337	     71.52407195	    -24.48947486	     13.79790086	    126.24903706	     98.62022320	     63.45046647	    -24.21717391	      8.67059575	    131.58604182	     88.45786272
      6.80000000	    -25.36321809	     -6.22558794	     -0.74011800	     -0.31222530	      0.64801529	     -0.47694005	     88.09231893	      1.93795879	     -6.05220146	     93.00737432	      1.62328491	     29.57245695	    -15.90444276	     -7.49999987	     92.07040034	    -19.30460837	     17.87751804	     88.36322696	      1.54222925	     27.80243918	      6.90061845	     -7.49999987	    -35.13471663	      4.94960781	      3.79254212	     71.16306410	    -24.49693711	     13.71154395	    126.35439912	     98.37700569	     63.23783961	    -24.32465747	      8.56565814	    131.65732679	     88.10115367
      6.81000000	    -25.32707698	     -6.24380217	     -0.79105800	     -0.31177973	      0.64820959	     -0.47699376	     88.00058658	      1.98171075	     -6.08835800	     92.98033889	      1.62281305	     29.61647183	    -15.86986089	     -7.49999987	     91.98792157	    -19.34273336	     17.93172533	     88.39296372	      1.54274825	     27.93124555	      7.06207627	     -7.49999987	    -35.07939374	      4.98257468	      3.88801243	     70.85168638	    -24.66115544	     13.70629325	    126.42732483	     98.29350295	     63.02528066	    -24.28330173	      8.45422573	    131.65198581	     87.88657825
      6.82000000	    -25.30035111	     -6.13068764	     -0.78338456	     -0.31141152	      0.64844190	     -0.47713320	     87.95139705	      1.95432144	     -5.96217003	     92.99948883	      1.62314728	     29.69299303	    -15.93161045	     -7.49999987	     91.84660369	    -19.28487106	     17.80124782	     88.38197696	      1.54255650	     27.77739544	      6.69924927	     -7.49999987	    -35.01555416	      4.90619328	      3.78868336	     70.51946038	    -24.63940590	     13.55219231	    126.45961150	     97.70916159	     62.90531447	    -24.31382165	      8.37006378	    131.79224521	     87.40969560
      6.83000000	    -25.32723215	     -6.20066351	     -0.86189856	     -0.31097053	      0.64860573	     -0.47719966	     87.90707173	      2.04132887	     -6.02754544	     92.94191070	      1.62214235	     29.67944151	    -15.84949364	     -7.49999987	     91.86917078	    -19.36875846	     17.88296920	     88.40981318	      1.54304233	     27.88906114	      6.73496793	     -7.49999987	    -34.89089522	      5.00864916	      3.89916634	     70.25069906	    -24.86947732	     13.59898544	    126.63709253	     97.11685543	     62.57852644	    -24.46050915	      8.30518518	    131.90897273	     86.86200117
